<svg xmlns="http://www.w3.org/2000/svg" width="20" height="20.001" viewBox="0 0 20 20.001"><path d="M10,0a10,10,0,1,1-4.67,18.83H5.3c-.3-.12-.54-.33-.82-.47a1.429,1.429,0,0,0-.979-.049,21.99,21.99,0,0,1-2.261.649c-.4.01-.52-.23-.52-.62a18.7,18.7,0,0,1,.7-2.33,1.233,1.233,0,0,0-.09-.991h0l-.2-.389A9.83,9.83,0,0,1,0,10.061H0V10A10,10,0,0,1,10,0ZM14.61,8.73a1.28,1.28,0,1,0,1.28,1.28A1.282,1.282,0,0,0,14.61,8.73ZM10,8.73a1.28,1.28,0,1,0,1.279,1.28A1.277,1.277,0,0,0,10,8.73Zm-4.611,0a1.28,1.28,0,0,0,0,2.56,1.28,1.28,0,1,0,0-2.56Z" transform="translate(-0.001)" fill="#200e32"/></svg>