<svg xmlns="http://www.w3.org/2000/svg" width="19.138" height="17.674" viewBox="0 0 19.138 17.674"><g transform="translate(-1879 -1747.58)"><path d="M-1030.109-6085.327h-8.643a5.253,5.253,0,0,1-5.247-5.248v-7.177a5.254,5.254,0,0,1,5.247-5.249h8.643a5.254,5.254,0,0,1,5.247,5.249v7.177A5.253,5.253,0,0,1-1030.109-6085.327Zm-3.322-5.675a1,1,0,0,0-1,1,1,1,0,0,0,1,1h3a1,1,0,0,0,1-1,1,1,0,0,0-1-1Zm-5-5a.992.992,0,0,0-.707.293.993.993,0,0,0-.293.707.993.993,0,0,0,.293.707l1.794,1.793-1.794,1.792a.993.993,0,0,0-.292.707.994.994,0,0,0,.292.707,1,1,0,0,0,.708.294.989.989,0,0,0,.706-.294l2.5-2.5a.992.992,0,0,0,.293-.707.994.994,0,0,0-.293-.707l-2.5-2.5A.992.992,0,0,0-1038.431-6096Z" transform="translate(2923 7850.581)"/><path d="M-1030.109-6086.827a3.752,3.752,0,0,0,3.747-3.748v-7.177a3.752,3.752,0,0,0-3.747-3.749h-8.643a3.752,3.752,0,0,0-3.747,3.749v7.177a3.752,3.752,0,0,0,3.747,3.748h8.643m-5.664-2.3-.89.889a2.478,2.478,0,0,1-1.768.734,2.488,2.488,0,0,1-1.769-.734,2.485,2.485,0,0,1-.731-1.767,2.482,2.482,0,0,1,.732-1.768l.732-.731-.732-.732a2.482,2.482,0,0,1-.732-1.767,2.484,2.484,0,0,1,.732-1.767,2.483,2.483,0,0,1,1.768-.733,2.481,2.481,0,0,1,1.767.732l2.5,2.5a2.485,2.485,0,0,1,.732,1.768h3a2.5,2.5,0,0,1,2.5,2.5,2.5,2.5,0,0,1-2.5,2.5h-3a2.5,2.5,0,0,1-2.342-1.624m5.664,3.8h-8.643a5.253,5.253,0,0,1-5.247-5.248v-7.177a5.254,5.254,0,0,1,5.247-5.249h8.643a5.254,5.254,0,0,1,5.247,5.249v7.177A5.253,5.253,0,0,1-1030.109-6085.327Zm-3.322-5.675a1,1,0,0,0-1,1,1,1,0,0,0,1,1h3a1,1,0,0,0,1-1,1,1,0,0,0-1-1Zm-5-5a.992.992,0,0,0-.707.293.993.993,0,0,0-.293.707.993.993,0,0,0,.293.707l1.794,1.793-1.794,1.792a.993.993,0,0,0-.292.707.994.994,0,0,0,.292.707,1,1,0,0,0,.708.294.989.989,0,0,0,.706-.294l2.5-2.5a.992.992,0,0,0,.293-.707.994.994,0,0,0-.293-.707l-2.5-2.5A.992.992,0,0,0-1038.431-6096Z" transform="translate(2923 7850.581)"/></g></svg>