<svg xmlns="http://www.w3.org/2000/svg" width="20.277" height="20.274" viewBox="0 0 20.277 20.274"><g transform="translate(0.1 0.097)"><path d="M13.14.5A6.391,6.391,0,0,0,8.589,2.385l-.939.94a1.192,1.192,0,0,0,0,1.686,1.221,1.221,0,0,0,1.686,0l.939-.939A4.05,4.05,0,1,1,16,9.8l-.94.939a1.193,1.193,0,0,0,1.687,1.687l.939-.94A6.432,6.432,0,0,0,13.14.5ZM6.932,19.576a6.394,6.394,0,0,0,4.551-1.882l.938-.94a1.192,1.192,0,0,0,0-1.686,1.221,1.221,0,0,0-1.686,0l-.939.939A4.051,4.051,0,1,1,4.067,10.28l.939-.939A1.192,1.192,0,0,0,3.32,7.654l-.939.939A6.432,6.432,0,0,0,6.932,19.576Z" transform="translate(0 0)"/><path d="M13.118-.1h.044A7.032,7.032,0,0,1,18.115,11.91l-.939.94a1.793,1.793,0,1,1-2.534-2.536l.939-.938A3.45,3.45,0,0,0,10.7,4.5l-.939.939a1.82,1.82,0,0,1-2.535,0A1.775,1.775,0,0,1,6.7,4.168,1.794,1.794,0,0,1,7.227,2.9l.938-.938A7.037,7.037,0,0,1,13.118-.1Zm.024,1.2h-.024a5.83,5.83,0,0,0-4.1,1.705l-.94.941a.593.593,0,0,0,.838.838l.939-.939a4.65,4.65,0,1,1,6.577,6.576l-.94.939a.589.589,0,0,0-.173.417.58.58,0,0,0,.173.42.588.588,0,0,0,.419.174A.581.581,0,0,0,16.327,12l.939-.94a5.832,5.832,0,0,0-4.1-9.959Zm-8.979,5.6A1.792,1.792,0,0,1,5.431,9.764l-.94.94a3.449,3.449,0,0,0,2.441,5.888,3.424,3.424,0,0,0,2.439-1.009l.939-.939a1.82,1.82,0,0,1,2.535,0,1.792,1.792,0,0,1,0,2.535l-.938.939a7.041,7.041,0,0,1-4.955,2.058H6.911A7.032,7.032,0,0,1,1.957,8.169L2.9,7.23A1.783,1.783,0,0,1,4.163,6.706ZM6.933,17.792a4.649,4.649,0,0,1-3.29-7.936l.94-.94a.592.592,0,0,0-.838-.837l-.939.939a5.832,5.832,0,0,0,4.105,9.959h.042a5.833,5.833,0,0,0,4.105-1.705l.939-.94a.592.592,0,0,0,0-.837.622.622,0,0,0-.838,0l-.939.939A4.616,4.616,0,0,1,6.933,17.792Z" transform="translate(0 0)"/><path d="M9.2,17.307a1.192,1.192,0,0,0,1.686,0L17.3,10.9a1.192,1.192,0,0,0,0-1.686,1.221,1.221,0,0,0-1.686,0L9.2,15.621a1.193,1.193,0,0,0,0,1.686Z" transform="translate(-3.211 -3.218)"/><path d="M10.041,18.257A1.793,1.793,0,0,1,8.774,15.2l6.412-6.412a1.793,1.793,0,0,1,2.536,2.534l-6.413,6.413A1.778,1.778,0,0,1,10.041,18.257Zm6.411-8.786a.59.59,0,0,0-.418.162L9.622,16.045a.592.592,0,1,0,.837.838l6.413-6.413a.592.592,0,0,0,0-.838A.593.593,0,0,0,16.452,9.471Z" transform="translate(-3.211 -3.218)"/></g></svg>