<svg xmlns="http://www.w3.org/2000/svg" width="18.077" height="21.088" viewBox="0 0 18.077 21.088"><g transform="translate(-1878.75 -1686.466)"><path d="M19.566,24.9c2.208-1.507,7.313-5.652,7-11.1A8.288,8.288,0,0,0,10,14.277c0,5.218,4.9,9.163,7,10.618a2.279,2.279,0,0,0,2.562,0ZM14.71,13.712a3.579,3.579,0,1,1,3.579,3.579,3.579,3.579,0,0,1-3.579-3.579Z" transform="translate(1869.5 1681.236)"/><path d="M18.816,26.318v-.326a3.035,3.035,0,0,1-2.234-.477l0,0C14.375,23.99,9.25,19.85,9.25,14.277A9.039,9.039,0,0,1,18.289,5.23c.127,0,.256,0,.382.008h.005a9.1,9.1,0,0,1,8.635,8.512A11.019,11.019,0,0,1,24.6,21.292a21.7,21.7,0,0,1-4.61,4.225Zm-1.388-2.042a1.53,1.53,0,0,0,1.717,0l.251-.17a20,20,0,0,0,4.028-3.744,9.573,9.573,0,0,0,2.39-6.518,7.6,7.6,0,0,0-7.209-7.1c-.105,0-.212-.007-.317-.007a7.539,7.539,0,0,0-7.539,7.546C10.75,15.9,11.4,20.113,17.428,24.276Zm.861-6.235a4.329,4.329,0,1,1,4.329-4.329A4.34,4.34,0,0,1,18.289,18.041Zm0-7.159a2.829,2.829,0,1,0,2.829,2.829A2.833,2.833,0,0,0,18.289,10.882Z" transform="translate(1869.5 1681.236)"/></g></svg>