<svg xmlns="http://www.w3.org/2000/svg" width="17.779" height="20.916" viewBox="0 0 17.779 20.916"><path d="M10.106,17.868a3.63,3.63,0,0,1,1.5.372h.028a.926.926,0,0,1,.15,1.283,3.223,3.223,0,0,1-2.423,1.367,3.854,3.854,0,0,1-2.807-.772,1.7,1.7,0,0,1-.73-1.218c0-.521.487-.762.936-.865a7.8,7.8,0,0,1,1.6-.167h1.75ZM8.928,0c3.237,0,6.577,2.343,6.924,5.736.056.7,0,1.422.056,2.129a5.258,5.258,0,0,0,1.226,2.454,3.824,3.824,0,0,1,.646,1.924h0v.214a3.825,3.825,0,0,1-.936,2.529,4.689,4.689,0,0,1-2.947,1.46,39.443,39.443,0,0,1-10.039,0,4.689,4.689,0,0,1-2.985-1.46A3.768,3.768,0,0,1,0,12.457v-.214a3.915,3.915,0,0,1,.627-1.924A5.361,5.361,0,0,0,1.873,7.865c.056-.707,0-1.422.056-2.129C2.285,2.343,5.559,0,8.834,0h0Z"/></svg>