<svg xmlns="http://www.w3.org/2000/svg" width="20.383" height="20.383" viewBox="0 0 20.383 20.383"><g transform="translate(-1878.5 -1586.81)"><path d="M17.488,1.342a1.609,1.609,0,0,1,2.051,2.051L14.233,18.553a1.609,1.609,0,0,1-2.99.122l-2.73-6.142a.327.327,0,0,0-.166-.166L2.206,9.638a1.609,1.609,0,0,1,.122-2.99Zm1.528,1.43a.641.641,0,1,0-.907-.907l-9.4,9.4a.641.641,0,1,0,.907.907Z" transform="translate(1878.25 1586.562)" fill-rule="evenodd"/><path d="M18.028.249a2.614,2.614,0,0,1,2.124,1.108,2.573,2.573,0,0,1,.33,2.367L15.177,18.884a2.609,2.609,0,0,1-4.847.2L7.7,13.176,1.8,10.552A2.609,2.609,0,0,1,2,5.7L17.158.4A2.629,2.629,0,0,1,18.028.249ZM7.693,10.983a1.635,1.635,0,0,1,.3-.42l7.445-7.445L2.658,7.592a.609.609,0,0,0-.046,1.132Zm5.018,7.649a.6.6,0,0,0,.577-.408L17.764,5.438l-7.445,7.445a1.645,1.645,0,0,1-.42.305l2.258,5.081A.589.589,0,0,0,12.711,18.631Z" transform="translate(1878.25 1586.562)"/></g></svg>