<svg xmlns="http://www.w3.org/2000/svg" width="17.501" height="18.799" viewBox="0 0 17.501 18.799"><g transform="translate(-1879.75 -1715.167)"><path d="M2.495,6.082H14.816L12.34,8.558a.836.836,0,1,0,1.183,1.183l3.9-3.9a.882.882,0,0,0,.181-.912,1.735,1.735,0,0,0-.181-.271l-3.9-3.9A.837.837,0,0,0,12.34,1.933l2.476,2.476H2.495A.837.837,0,0,0,2.495,6.082Zm14.341,6.135H4.514L6.99,9.741A.837.837,0,0,0,5.807,8.558l-3.9,3.9a.859.859,0,0,0-.161.946,1.465,1.465,0,0,0,.161.237l3.9,3.9A.837.837,0,0,0,6.99,16.366L4.514,13.89H16.835A.837.837,0,0,0,16.835,12.217Z" transform="translate(1878.836 1715.417)"/><path d="M12.946-.25a1.561,1.561,0,0,1,1.1.461l.009.009L17.984,4.15l.024.029a2.477,2.477,0,0,1,.26.389l.025.046.018.049a1.624,1.624,0,0,1-.336,1.686l-.017.018-3.9,3.9a1.576,1.576,0,0,1-1.108.465A1.592,1.592,0,0,1,11.817,8.02L13,6.832H2.481A1.556,1.556,0,0,1,.92,5.246,1.558,1.558,0,0,1,2.483,3.659H13l-1.2-1.2a1.531,1.531,0,0,1-.337-1.7A1.639,1.639,0,0,1,12.946-.25ZM13,1.286a.142.142,0,0,0-.052-.036h0a.128.128,0,0,0-.071.043.118.118,0,0,0-.035.062.148.148,0,0,0,.037.053l3.75,3.75H2.5c-.059,0-.063.012-.071.03a.156.156,0,0,0,.008.132.156.156,0,0,0,.064.011H16.626L12.851,9.107l0,0a.15.15,0,0,0,.057.126h.028a.084.084,0,0,0,.061-.025l3.891-3.891a.131.131,0,0,0,.03-.1c-.015-.024-.031-.047-.048-.069ZM6.384,7.557h0a1.639,1.639,0,0,1,1.482,1,1.548,1.548,0,0,1-.338,1.7l-.008.008-1.2,1.2H16.848a1.587,1.587,0,0,1,0,3.173H6.325l1.2,1.2a1.531,1.531,0,0,1,.337,1.7,1.639,1.639,0,0,1-1.482,1,1.561,1.561,0,0,1-1.1-.461l-.009-.009L1.34,14.143l-.028-.036a2.138,2.138,0,0,1-.24-.362l0-.006a1.6,1.6,0,0,1,.286-1.787l.018-.019,3.9-3.9.009-.009A1.561,1.561,0,0,1,6.384,7.557Zm.07,1.659a.144.144,0,0,0,.036-.051A.12.12,0,0,0,6.455,9.1a.13.13,0,0,0-.071-.043h0a.149.149,0,0,0-.055.04h0l-.034.036L2.447,12.979a.135.135,0,0,0-.032.1c.01.017.031.045.052.072l3.865,3.865a.14.14,0,0,0,.052.036.128.128,0,0,0,.072-.043.118.118,0,0,0,.035-.062.149.149,0,0,0-.037-.053L2.7,13.14H16.828c.059,0,.063-.012.07-.03a.082.082,0,0,0-.072-.143H2.7Z" transform="translate(1878.836 1715.417)"/></g></svg>